<svg xmlns="http://www.w3.org/2000/svg" viewBox="0 0 320 200" role="img" aria-hidden="true">
  <!-- Decorative only: a layered graph suggesting learned structure. -->
  <g stroke="currentColor" stroke-opacity="0.16" stroke-width="1">
    <path d="M72 52 L160 44 M72 52 L160 100 M72 52 L160 156" />
    <path d="M72 100 L160 44 M72 100 L160 100 M72 100 L160 156" />
    <path d="M72 148 L160 44 M72 148 L160 100 M72 148 L160 156" />
    <path d="M160 44 L248 76 M160 44 L248 124" />
    <path d="M160 100 L248 76 M160 100 L248 124" />
    <path d="M160 156 L248 76 M160 156 L248 124" />
  </g>
  <g stroke="currentColor" stroke-opacity="0.55" stroke-width="1.5">
    <path d="M72 100 L160 44 L248 124" fill="none" />
  </g>
  <g fill="currentColor" fill-opacity="0.9">
    <circle cx="72" cy="52" r="4" /><circle cx="72" cy="100" r="4" /><circle cx="72" cy="148" r="4" />
    <circle cx="160" cy="44" r="4" /><circle cx="160" cy="100" r="4" /><circle cx="160" cy="156" r="4" />
    <circle cx="248" cy="76" r="4" /><circle cx="248" cy="124" r="4" />
  </g>
</svg>
