<svg xmlns="http://www.w3.org/2000/svg" viewBox="0 0 320 200" role="img" aria-hidden="true">
  <!-- Decorative only: a periodic lattice with an ordered/disordered boundary. -->
  <g stroke="currentColor" stroke-opacity="0.18" stroke-width="1">
    <path d="M40 40 H280 M40 80 H280 M40 120 H280 M40 160 H280" />
    <path d="M40 40 V160 M88 40 V160 M136 40 V160 M184 40 V160 M232 40 V160 M280 40 V160" />
  </g>
  <g fill="currentColor" fill-opacity="0.85">
    <circle cx="40" cy="40" r="3" /><circle cx="88" cy="40" r="3" /><circle cx="136" cy="40" r="3" />
    <circle cx="40" cy="80" r="3" /><circle cx="88" cy="80" r="3" /><circle cx="136" cy="80" r="3" />
    <circle cx="40" cy="120" r="3" /><circle cx="88" cy="120" r="3" /><circle cx="136" cy="120" r="3" />
    <circle cx="40" cy="160" r="3" /><circle cx="88" cy="160" r="3" /><circle cx="136" cy="160" r="3" />
  </g>
  <g fill="currentColor" fill-opacity="0.35">
    <circle cx="184" cy="40" r="3" /><circle cx="232" cy="40" r="3" /><circle cx="280" cy="40" r="3" />
    <circle cx="186" cy="82" r="3" /><circle cx="230" cy="78" r="3" /><circle cx="281" cy="83" r="3" />
    <circle cx="182" cy="118" r="3" /><circle cx="234" cy="123" r="3" /><circle cx="278" cy="117" r="3" />
    <circle cx="185" cy="162" r="3" /><circle cx="231" cy="158" r="3" /><circle cx="280" cy="161" r="3" />
  </g>
  <path d="M160 28 V172" stroke="currentColor" stroke-opacity="0.5" stroke-width="1.3" stroke-dasharray="4 5" />
</svg>
