<svg xmlns="http://www.w3.org/2000/svg" viewBox="0 0 289 290" width="289" height="290"><g transform="translate(59.02 38.46) scale(0.37547)"><path fill="#EEEDEB" fill-rule="evenodd" d="M186.5 84.0L296.5 84.0L296.5 113.0L273.5 114.0L274.0 334.5L317.5 334.0L317.5 167.0L296.5 166.0L296.5 137.0L400.5 137.0L400.5 166.0L376.5 167.0L376.5 362.0L338.0 400.5L273.5 401.0L273.5 444.0L296.5 445.0L296.0 483.5L187.0 483.5L186.5 445.0L210.5 444.0L210.5 401.0L144.0 400.5L106.5 362.0L106.5 168.0L105.0 166.5L82.5 166.0L83.0 136.5L186.5 137.0L186.5 166.0L165.5 167.0L165.5 334.0L210.5 334.0L210.5 114.0L186.5 113.0Z"></path></g><path d="M54 45 L54 245" stroke="#EEEDEB" stroke-width="7" stroke-linecap="round" fill="none"></path><path d="M225.4 45 L249.4 145 L225.4 245" stroke="#EEEDEB" stroke-width="7" stroke-linecap="round" stroke-linejoin="round" fill="none"></path></svg>