<?xml version="1.0" encoding="UTF-8" standalone="no"?>
<!-- Created with Inkscape (http://www.inkscape.org/) -->

<svg
   width="165.7921mm"
   height="38.629166mm"
   viewBox="0 0 165.7921 38.629166"
   version="1.1"
   id="svg1"
   xml:space="preserve"
   inkscape:version="1.4 (e7c3feb1, 2024-10-09)"
   sodipodi:docname="lockup-light.svg"
   inkscape:export-filename="iutheory1_dark.png"
   inkscape:export-xdpi="300"
   inkscape:export-ydpi="300"
   xmlns:inkscape="http://www.inkscape.org/namespaces/inkscape"
   xmlns:sodipodi="http://sodipodi.sourceforge.net/DTD/sodipodi-0.dtd"
   xmlns="http://www.w3.org/2000/svg"
   xmlns:svg="http://www.w3.org/2000/svg"><sodipodi:namedview
     id="namedview1"
     pagecolor="#ffffff"
     bordercolor="#666666"
     borderopacity="1.0"
     inkscape:showpageshadow="2"
     inkscape:pageopacity="0.0"
     inkscape:pagecheckerboard="0"
     inkscape:deskcolor="#d1d1d1"
     inkscape:document-units="mm"
     inkscape:zoom="0.92244611"
     inkscape:cx="296.49429"
     inkscape:cy="86.725934"
     inkscape:window-width="1472"
     inkscape:window-height="895"
     inkscape:window-x="0"
     inkscape:window-y="33"
     inkscape:window-maximized="1"
     inkscape:current-layer="g2" /><defs
     id="defs1" /><g
     inkscape:label="Layer 1"
     inkscape:groupmode="layer"
     id="layer1"
     transform="translate(-28.707293,-129.11666)"><g
       id="g1"
       transform="matrix(0.26458333,0,0,0.26458333,12.038543,115.35833)"><path
         d="M 66,55 V 195"
         stroke="#eeedeb"
         stroke-width="6"
         stroke-linecap="round"
         fill="none"
         id="path1"
         style="stroke:#191919;stroke-opacity:1" /><path
         d="m 206.6,55 26,70 -26,70"
         stroke="#eeedeb"
         stroke-width="6"
         stroke-linecap="round"
         stroke-linejoin="round"
         fill="none"
         id="path2"
         style="stroke:#191919;stroke-opacity:1" /><g
         transform="matrix(0.20738,0,0,0.20738,92.656225,67.585985)"
         id="g3"
         style="fill:#191919;fill-opacity:1"><path
           fill="#eeedeb"
           fill-rule="evenodd"
           d="m 186.5,84 h 110 v 29 l -23,1 0.5,220.5 43.5,-0.5 V 167 l -21,-1 v -29 h 104 v 29 l -24,1 V 362 L 338,400.5 273.5,401 v 43 l 23,1 -0.5,38.5 H 187 l -0.5,-38.5 24,-1 V 401 L 144,400.5 106.5,362 V 168 L 105,166.5 82.5,166 83,136.5 186.5,137 v 29 l -21,1 v 167 h 45 V 114 l -24,-1 z"
           id="path3"
           style="fill:#191919;fill-opacity:1" /></g><g
         id="g2"><path
           d="m 282.7758,110.47325 q -1.68,0 -2.58,-0.92 -0.9,-0.92 -0.9,-2.52 v -13.36 h -5.88 v -2.76 h 5.88 v -6.96 h 3.16 v 6.96 h 6.4 v 2.76 h -6.4 v 12.88 q 0,1.2 1.16,1.2 h 4.36 v 2.72 z m 11.2,0 v -28 h 3.16 v 11.56 h 0.56 q 0.4,-0.88 1.22,-1.66 0.82,-0.78 2.12,-1.3 1.3,-0.52 3.3,-0.52 2.2,0 3.94,0.94 1.74,0.94 2.78,2.72 1.04,1.78 1.04,4.42 v 11.84 h -3.16 v -11.6 q 0,-2.92 -1.46,-4.24 -1.46,-1.32 -3.94,-1.32 -2.84,0 -4.62,1.84 -1.78,1.84 -1.78,5.48 v 9.84 z m 33.48,0.56 q -2.96,0 -5.2,-1.26 -2.24,-1.26 -3.48,-3.54 -1.24,-2.28 -1.24,-5.28 v -0.48 q 0,-3.04 1.24,-5.32 1.24,-2.28 3.44,-3.54 2.2,-1.26 5.04,-1.26 2.76,0 4.88,1.18 2.12,1.18 3.32,3.38 1.2,2.2 1.2,5.16 v 1.44 h -15.96 q 0.12,3.16 2.04,4.94 1.92,1.78 4.8,1.78 2.52,0 3.88,-1.16 1.36,-1.16 2.08,-2.76 l 2.72,1.32 q -0.6,1.24 -1.66,2.48 -1.06,1.24 -2.76,2.08 -1.7,0.84 -4.34,0.84 z m -6.72,-12.12 h 12.72 q -0.16,-2.72 -1.86,-4.24 -1.7,-1.52 -4.34,-1.52 -2.68,0 -4.4,1.52 -1.72,1.52 -2.12,4.24 z m 30.48,12.12 q -2.96,0 -5.22,-1.24 -2.26,-1.24 -3.52,-3.5 -1.26,-2.26 -1.26,-5.34 v -0.52 q 0,-3.04 1.26,-5.32 1.26,-2.28 3.52,-3.52 2.26,-1.24 5.22,-1.24 2.96,0 5.22,1.24 2.26,1.24 3.52,3.52 1.26,2.28 1.26,5.32 v 0.52 q 0,3.08 -1.26,5.34 -1.26,2.26 -3.52,3.5 -2.26,1.24 -5.22,1.24 z m 0,-2.84 q 3.12,0 4.98,-1.98 1.86,-1.98 1.86,-5.34 v -0.36 q 0,-3.36 -1.86,-5.34 -1.86,-1.98 -4.98,-1.98 -3.08,0 -4.96,1.98 -1.88,1.98 -1.88,5.34 v 0.36 q 0,3.36 1.88,5.34 1.88,1.98 4.96,1.98 z m 15.68,2.28 v -19.56 h 3.08 v 2.4 h 0.56 q 0.52,-1.28 1.6,-1.88 1.08,-0.6 2.84,-0.6 h 2.32 v 2.88 h -2.52 q -2.12,0 -3.42,1.18 -1.3,1.18 -1.3,3.66 v 11.92 z m 24.04,0.56 q -2.96,0 -5.2,-1.26 -2.24,-1.26 -3.48,-3.54 -1.24,-2.28 -1.24,-5.28 v -0.48 q 0,-3.04 1.24,-5.32 1.24,-2.28 3.44,-3.54 2.2,-1.26 5.04,-1.26 2.76,0 4.88,1.18 2.12,1.18 3.32,3.38 1.2,2.2 1.2,5.16 v 1.44 h -15.96 q 0.12,3.16 2.04,4.94 1.92,1.78 4.8,1.78 2.52,0 3.88,-1.16 1.36,-1.16 2.08,-2.76 l 2.72,1.32 q -0.6,1.24 -1.66,2.48 -1.06,1.24 -2.76,2.08 -1.7,0.84 -4.34,0.84 z m -6.72,-12.12 h 12.72 q -0.16,-2.72 -1.86,-4.24 -1.7,-1.52 -4.34,-1.52 -2.68,0 -4.4,1.52 -1.72,1.52 -2.12,4.24 z m 28.64,11.56 q -1.68,0 -2.58,-0.92 -0.9,-0.92 -0.9,-2.52 v -13.36 h -5.88 v -2.76 h 5.88 v -6.96 h 3.16 v 6.96 h 6.4 v 2.76 h -6.4 v 12.88 q 0,1.2 1.16,1.2 h 4.36 v 2.72 z m 11.2,0 v -19.56 h 3.16 v 19.56 z m 1.6,-22.6 q -1.04,0 -1.74,-0.68 -0.7,-0.68 -0.7,-1.72 0,-1.08 0.7,-1.76 0.7,-0.68 1.74,-0.68 1.04,0 1.72,0.68 0.68,0.68 0.68,1.76 0,1.04 -0.68,1.72 -0.68,0.68 -1.72,0.68 z m 17.2,23.16 q -2.84,0 -5.1,-1.22 -2.26,-1.22 -3.56,-3.5 -1.3,-2.28 -1.3,-5.4 v -0.44 q 0,-3.16 1.3,-5.42 1.3,-2.26 3.56,-3.48 2.26,-1.22 5.1,-1.22 2.8,0 4.78,1.04 1.98,1.04 3.12,2.76 1.14,1.72 1.46,3.68 l -3.08,0.64 q -0.2,-1.44 -0.94,-2.64 -0.74,-1.2 -2.06,-1.92 -1.32,-0.72 -3.24,-0.72 -1.96,0 -3.5,0.88 -1.54,0.88 -2.44,2.52 -0.9,1.64 -0.9,3.92 v 0.36 q 0,2.28 0.9,3.92 0.9,1.64 2.44,2.52 1.54,0.88 3.5,0.88 2.92,0 4.46,-1.52 1.54,-1.52 1.9,-3.76 l 3.12,0.68 q -0.44,1.92 -1.6,3.64 -1.16,1.72 -3.14,2.76 -1.98,1.04 -4.78,1.04 z m 20.92,0 q -2.04,0 -3.72,-0.72 -1.68,-0.72 -2.64,-2.08 -0.96,-1.36 -0.96,-3.32 0,-2 0.96,-3.3 0.96,-1.3 2.64,-1.96 1.68,-0.66 3.76,-0.66 h 6.6 v -1.44 q 0,-2.08 -1.22,-3.28 -1.22,-1.2 -3.62,-1.2 -2.36,0 -3.68,1.14 -1.32,1.14 -1.8,3.06 l -2.96,-0.96 q 0.48,-1.64 1.52,-2.98 1.04,-1.34 2.78,-2.16 1.74,-0.82 4.18,-0.82 3.76,0 5.84,1.94 2.08,1.94 2.08,5.46 v 8.84 q 0,1.2 1.12,1.2 h 1.8 v 2.68 h -2.76 q -1.32,0 -2.12,-0.74 -0.8,-0.74 -0.8,-1.98 v -0.2 h -0.48 q -0.44,0.76 -1.18,1.58 -0.74,0.82 -2.02,1.36 -1.28,0.54 -3.32,0.54 z m 0.36,-2.72 q 2.8,0 4.54,-1.66 1.74,-1.66 1.74,-4.66 v -0.44 h -6.48 q -1.88,0 -3.1,0.82 -1.22,0.82 -1.22,2.46 0,1.64 1.26,2.56 1.26,0.92 3.26,0.92 z m 16.64,2.16 v -28 h 3.16 v 28 z m 29.08,0.56 q -2.84,0 -5.1,-1.22 -2.26,-1.22 -3.56,-3.5 -1.3,-2.28 -1.3,-5.4 v -0.44 q 0,-3.16 1.3,-5.42 1.3,-2.26 3.56,-3.48 2.26,-1.22 5.1,-1.22 2.8,0 4.78,1.04 1.98,1.04 3.12,2.76 1.14,1.72 1.46,3.68 l -3.08,0.64 q -0.2,-1.44 -0.94,-2.64 -0.74,-1.2 -2.06,-1.92 -1.32,-0.72 -3.24,-0.72 -1.96,0 -3.5,0.88 -1.54,0.88 -2.44,2.52 -0.9,1.64 -0.9,3.92 v 0.36 q 0,2.28 0.9,3.92 0.9,1.64 2.44,2.52 1.54,0.88 3.5,0.88 2.92,0 4.46,-1.52 1.54,-1.52 1.9,-3.76 l 3.12,0.68 q -0.44,1.92 -1.6,3.64 -1.16,1.72 -3.14,2.76 -1.98,1.04 -4.78,1.04 z m 14.92,-0.56 v -28 h 3.16 v 11.56 h 0.56 q 0.4,-0.88 1.22,-1.66 0.82,-0.78 2.12,-1.3 1.3,-0.52 3.3,-0.52 2.2,0 3.94,0.94 1.74,0.94 2.78,2.72 1.04,1.78 1.04,4.42 v 11.84 h -3.16 v -11.6 q 0,-2.92 -1.46,-4.24 -1.46,-1.32 -3.94,-1.32 -2.84,0 -4.62,1.84 -1.78,1.84 -1.78,5.48 v 9.84 z m 33.48,0.56 q -2.96,0 -5.2,-1.26 -2.24,-1.26 -3.48,-3.54 -1.24,-2.28 -1.24,-5.28 v -0.48 q 0,-3.04 1.24,-5.32 1.24,-2.28 3.44,-3.54 2.2,-1.26 5.04,-1.26 2.76,0 4.88,1.18 2.12,1.18 3.32,3.38 1.2,2.2 1.2,5.16 v 1.44 h -15.96 q 0.12,3.16 2.04,4.94 1.92,1.78 4.8,1.78 2.52,0 3.88,-1.16 1.36,-1.16 2.08,-2.76 l 2.72,1.32 q -0.6,1.24 -1.66,2.48 -1.06,1.24 -2.76,2.08 -1.7,0.84 -4.34,0.84 z m -6.72,-12.12 h 12.72 q -0.16,-2.72 -1.86,-4.24 -1.7,-1.52 -4.34,-1.52 -2.68,0 -4.4,1.52 -1.72,1.52 -2.12,4.24 z m 21.44,11.56 v -19.56 h 3.08 v 2.44 h 0.56 q 0.56,-1.04 1.84,-1.92 1.28,-0.88 3.6,-0.88 2.28,0 3.7,1 1.42,1 2.06,2.44 h 0.56 q 0.68,-1.44 2.06,-2.44 1.38,-1 3.86,-1 1.96,0 3.44,0.8 1.48,0.8 2.34,2.3 0.86,1.5 0.86,3.58 v 13.24 h -3.16 v -12.96 q 0,-1.96 -1.14,-3.1 -1.14,-1.14 -3.18,-1.14 -2.16,0 -3.54,1.4 -1.38,1.4 -1.38,4.04 v 11.76 h -3.16 v -12.96 q 0,-1.96 -1.14,-3.1 -1.14,-1.14 -3.18,-1.14 -2.16,0 -3.54,1.4 -1.38,1.4 -1.38,4.04 v 11.76 z m 34.4,0 v -19.56 h 3.16 v 19.56 z m 1.6,-22.6 q -1.04,0 -1.74,-0.68 -0.7,-0.68 -0.7,-1.72 0,-1.08 0.7,-1.76 0.7,-0.68 1.74,-0.68 1.04,0 1.72,0.68 0.68,0.68 0.68,1.76 0,1.04 -0.68,1.72 -0.68,0.68 -1.72,0.68 z m 16.08,23.16 q -3.64,0 -6.14,-1.68 -2.5,-1.68 -3.02,-5.32 l 3,-0.68 q 0.32,1.92 1.2,3.02 0.88,1.1 2.18,1.56 1.3,0.46 2.78,0.46 2.2,0 3.48,-0.88 1.28,-0.88 1.28,-2.36 0,-1.52 -1.22,-2.14 -1.22,-0.62 -3.34,-1.02 l -1.64,-0.28 q -1.88,-0.32 -3.44,-1 -1.56,-0.68 -2.48,-1.84 -0.92,-1.16 -0.92,-2.92 0,-2.64 2.04,-4.12 2.04,-1.48 5.4,-1.48 3.32,0 5.38,1.5 2.06,1.5 2.66,4.22 l -2.96,0.76 q -0.36,-2.12 -1.72,-2.98 -1.36,-0.86 -3.36,-0.86 -2,0 -3.16,0.74 -1.16,0.74 -1.16,2.18 0,1.4 1.1,2.06 1.1,0.66 2.94,0.98 l 1.64,0.28 q 2.08,0.36 3.74,0.98 1.66,0.62 2.64,1.78 0.98,1.16 0.98,3.04 0,2.88 -2.14,4.44 -2.14,1.56 -5.74,1.56 z m 20.4,-0.56 q -1.68,0 -2.58,-0.92 -0.9,-0.92 -0.9,-2.52 v -13.36 h -5.88 v -2.76 h 5.88 v -6.96 h 3.16 v 6.96 h 6.4 v 2.76 h -6.4 v 12.88 q 0,1.2 1.16,1.2 h 4.36 v 2.72 z m 11.2,0 v -19.56 h 3.08 v 2.4 h 0.56 q 0.52,-1.28 1.6,-1.88 1.08,-0.6 2.84,-0.6 h 2.32 v 2.88 h -2.52 q -2.12,0 -3.42,1.18 -1.3,1.18 -1.3,3.66 v 11.92 z m 17.44,8 v -2.8 h 11.2 q 1.16,0 1.16,-1.2 v -7.12 h -0.56 q -0.4,0.84 -1.22,1.66 -0.82,0.82 -2.14,1.32 -1.32,0.5 -3.32,0.5 -2.12,0 -3.9,-0.92 -1.78,-0.92 -2.8,-2.72 -1.02,-1.8 -1.02,-4.4 v -11.88 h 3.16 v 11.64 q 0,2.88 1.46,4.2 1.46,1.32 3.94,1.32 2.8,0 4.6,-1.84 1.8,-1.84 1.8,-5.48 v -9.84 h 3.16 v 24.12 q 0,1.6 -0.9,2.52 -0.9,0.92 -2.62,0.92 z"
           fill="#191919"
           id="path4" /><path
           d="m 277.41581,154.70604 v -2.064 h 4.152 v -12.252 q 0,-0.42 0.174,-0.696 0.174,-0.276 0.45,-0.372 h -4.776 v -2.064 h 10.608 v 2.064 h -4.164 v 12.252 q 0,0.408 -0.174,0.69 -0.174,0.282 -0.45,0.378 h 4.788 v 2.064 z m 17.112,0 v -17.448 h 2.868 l 4.668,10.896 1.74,4.2 h 0.084 l -0.336,-4.272 v -10.824 h 2.16 v 17.448 h -2.868 l -4.632,-10.824 -1.716,-4.164 h -0.096 l 0.3,4.344 v 10.644 z m 19.716,0 -0.54,-2.088 h 2.676 q 1.608,0 2.76,-0.774 1.152,-0.774 1.764,-2.274 0.612,-1.5 0.612,-3.672 0,-2.292 -0.582,-3.738 -0.582,-1.446 -1.728,-2.13 -1.146,-0.684 -2.838,-0.684 h -2.76 l 0.636,-2.088 h 1.86 q 3.612,0 5.652,2.064 2.04,2.064 2.04,6.552 0,2.904 -0.984,4.872 -0.984,1.968 -2.712,2.964 -1.728,0.996 -3.984,0.996 z m -2.232,0 v -17.448 h 2.232 v 17.448 z m 17.604,0 v -2.064 h 4.152 v -12.252 q 0,-0.42 0.174,-0.696 0.174,-0.276 0.45,-0.372 h -4.776 v -2.064 h 10.608 v 2.064 h -4.164 v 12.252 q 0,0.408 -0.174,0.69 -0.174,0.282 -0.45,0.378 h 4.788 v 2.064 z m 15.528,0 5.652,-17.448 h 3.072 l 5.628,17.448 h -2.352 l -1.632,-5.244 1.284,0.912 h -8.676 l 0.84,-1.956 h 7.236 l -0.72,0.924 -2.136,-6.948 -0.984,-3.516 h -0.072 l -0.972,3.516 -3.804,12.312 z m 18.984,0 v -17.448 h 2.868 l 4.668,10.896 1.74,4.2 h 0.084 l -0.336,-4.272 v -10.824 h 2.16 v 17.448 h -2.868 l -4.632,-10.824 -1.716,-4.164 h -0.096 l 0.3,4.344 v 10.644 z m 15.816,0 5.652,-17.448 h 3.072 l 5.628,17.448 h -2.352 l -1.632,-5.244 1.284,0.912 h -8.676 l 0.84,-1.956 h 7.236 l -0.72,0.924 -2.136,-6.948 -0.984,-3.516 h -0.072 l -0.972,3.516 -3.804,12.312 z m 42.012,0.24 q -1.668,0 -2.994,-0.678 -1.326,-0.678 -2.094,-2.112 -0.768,-1.434 -0.768,-3.69 v -11.232 h 2.244 v 10.956 q 0,1.308 0.3,2.202 0.3,0.894 0.816,1.44 0.516,0.546 1.17,0.786 0.654,0.24 1.35,0.24 0.66,0 1.29,-0.24 0.63,-0.24 1.134,-0.786 0.504,-0.546 0.798,-1.44 0.294,-0.894 0.294,-2.202 v -10.932 h 2.244 v 11.208 q 0,2.256 -0.78,3.69 -0.78,1.434 -2.088,2.112 -1.308,0.678 -2.916,0.678 z m 11.772,-0.24 v -17.448 h 2.868 l 4.668,10.896 1.74,4.2 h 0.084 l -0.336,-4.272 v -10.824 h 2.16 v 17.448 h -2.868 l -4.632,-10.824 -1.716,-4.164 h -0.096 l 0.3,4.344 v 10.644 z m 17.688,0 v -2.064 h 4.152 v -12.252 q 0,-0.42 0.174,-0.696 0.174,-0.276 0.45,-0.372 h -4.776 v -2.064 h 10.608 v 2.064 h -4.164 v 12.252 q 0,0.408 -0.174,0.69 -0.174,0.282 -0.45,0.378 h 4.788 v 2.064 z m 21.18,0 -5.232,-17.448 h 2.544 l 3.36,12.288 0.78,3.024 h 0.156 l 0.78,-3.024 3.348,-12.288 h 2.544 l -5.22,17.448 z m 13.86,0 v -17.448 h 10.02 v 1.932 h -8.76 l 0.972,-0.924 v 6.972 l -0.972,-0.648 h 7.908 v 1.932 h -7.572 l 0.636,-0.708 v 8.076 l -0.972,-1.152 h 9.276 v 1.968 z m 26.556,0 -4.104,-7.116 h -3.336 l -0.804,-0.18 0.36,-1.476 v -0.384 h 3.816 q 1.116,0 1.788,-0.462 0.672,-0.462 0.966,-1.218 0.294,-0.756 0.294,-1.644 0,-0.984 -0.324,-1.65 -0.324,-0.666 -1.056,-1.002 -0.732,-0.336 -1.956,-0.336 l -2.868,-0.012 -0.012,-0.576 -1.02,-1.392 q 0.552,0 1.236,0 0.684,0 1.344,0 0.66,0 1.14,0 2.916,0 4.368,1.206 1.452,1.206 1.452,3.534 0,0.876 -0.192,1.734 -0.192,0.858 -0.672,1.602 -0.48,0.744 -1.32,1.266 -0.84,0.522 -2.136,0.726 l 0.06,-0.288 q 0.42,-0.012 0.702,0.072 0.282,0.084 0.504,0.312 0.222,0.228 0.462,0.66 l 3.828,6.624 z m -9.36,0 v -17.448 h 2.208 v 17.448 z m 22.752,0.24 q -1.8,0 -3.198,-0.576 -1.398,-0.576 -2.202,-1.788 -0.804,-1.212 -0.828,-3.132 h 2.208 q 0.024,1.296 0.6,2.058 0.576,0.762 1.506,1.092 0.93,0.33 1.998,0.33 1.236,0 2.046,-0.366 0.81,-0.366 1.218,-0.966 0.408,-0.6 0.408,-1.284 0,-0.984 -0.504,-1.596 -0.504,-0.612 -1.44,-1.026 -0.936,-0.414 -2.22,-0.822 -1.416,-0.456 -2.574,-1.152 -1.158,-0.696 -1.842,-1.71 -0.684,-1.014 -0.684,-2.406 0,-1.536 0.756,-2.562 0.756,-1.026 2.022,-1.542 1.266,-0.516 2.79,-0.516 2.28,0 3.72,1.206 1.44,1.206 1.74,3.666 h -2.136 q -0.108,-0.816 -0.486,-1.464 -0.378,-0.648 -1.086,-1.026 -0.708,-0.378 -1.824,-0.378 -1.536,0 -2.436,0.672 -0.9,0.672 -0.9,1.86 0,0.84 0.33,1.434 0.33,0.594 1.152,1.08 0.822,0.486 2.274,1.014 1.044,0.372 2.034,0.78 0.99,0.408 1.776,0.966 0.786,0.558 1.254,1.38 0.468,0.822 0.468,2.034 0.012,1.488 -0.726,2.55 -0.738,1.062 -2.076,1.626 -1.338,0.564 -3.138,0.564 z m 12.012,-0.24 v -2.064 h 4.152 v -12.252 q 0,-0.42 0.174,-0.696 0.174,-0.276 0.45,-0.372 h -4.776 v -2.064 h 10.608 v 2.064 h -4.164 v 12.252 q 0,0.408 -0.174,0.69 -0.174,0.282 -0.45,0.378 h 4.788 v 2.064 z m 21.564,0 v -14.34 q 0,-0.42 0.168,-0.696 0.168,-0.276 0.456,-0.372 h -5.484 v -2.04 h 12 v 2.04 h -4.86 v 15.408 z m 17.508,-5.856 -5.772,-11.592 h 2.556 l 2.196,4.764 1.956,4.26 h 0.18 l 1.968,-4.248 2.208,-4.776 h 2.544 l -5.76,11.592 z m -0.06,5.856 v -7.008 h 2.184 v 7.008 z"
           fill="#990000"
           id="path5" /></g></g></g></svg>
