<?xml version="1.0" encoding="UTF-8" standalone="no"?>
<!-- Created with Inkscape (http://www.inkscape.org/) -->

<svg
   width="165.27359mm"
   height="38.629169mm"
   viewBox="0 0 165.27359 38.629169"
   version="1.1"
   id="svg1"
   inkscape:version="1.4 (e7c3feb1, 2024-10-09)"
   sodipodi:docname="lockup-dark.svg"
   xmlns:inkscape="http://www.inkscape.org/namespaces/inkscape"
   xmlns:sodipodi="http://sodipodi.sourceforge.net/DTD/sodipodi-0.dtd"
   xmlns="http://www.w3.org/2000/svg"
   xmlns:svg="http://www.w3.org/2000/svg">
  <sodipodi:namedview
     id="namedview1"
     pagecolor="#070707"
     bordercolor="#666666"
     borderopacity="1.0"
     inkscape:showpageshadow="2"
     inkscape:pageopacity="0.0"
     inkscape:pagecheckerboard="0"
     inkscape:deskcolor="#d1d1d1"
     inkscape:document-units="mm"
     inkscape:zoom="0.98240189"
     inkscape:cx="238.19172"
     inkscape:cy="-87.540548"
     inkscape:window-width="1472"
     inkscape:window-height="895"
     inkscape:window-x="0"
     inkscape:window-y="33"
     inkscape:window-maximized="1"
     inkscape:current-layer="layer1" />
  <defs
     id="defs1" />
  <g
     inkscape:label="Layer 1"
     inkscape:groupmode="layer"
     id="layer1"
     transform="translate(10.583333,-225.425)">
    <path
       d="m -9.7895832,226.21875 v 37.04167"
       stroke="#eeedeb"
       stroke-width="1.5875"
       stroke-linecap="round"
       fill="none"
       id="path1"
       style="stroke:#d06363;stroke-opacity:1" />
    <path
       d="M 27.410833,226.21875 34.29,244.73959 27.410833,263.26042"
       stroke="#eeedeb"
       stroke-width="1.5875"
       stroke-linecap="round"
       stroke-linejoin="round"
       fill="none"
       id="path2"
       style="stroke:#d06363;stroke-opacity:1" />
    <g
       transform="matrix(0.05486929,0,0,0.05486929,-2.73679,229.54879)"
       id="g3"
       style="fill:#eeedeb;fill-opacity:1">
      <path
         fill="#eeedeb"
         fill-rule="evenodd"
         d="m 186.5,84 h 110 v 29 l -23,1 0.5,220.5 43.5,-0.5 V 167 l -21,-1 v -29 h 104 v 29 l -24,1 V 362 L 338,400.5 273.5,401 v 43 l 23,1 -0.5,38.5 H 187 l -0.5,-38.5 24,-1 V 401 L 144,400.5 106.5,362 V 168 L 105,166.5 82.5,166 83,136.5 186.5,137 v 29 l -21,1 v 167 h 45 V 114 l -24,-1 z"
         id="path3"
         style="fill:#eeedeb;fill-opacity:1" />
    </g>
    <g
       id="g2"
       transform="matrix(0.26458333,0,0,0.26458333,-27.252083,211.66667)">
      <path d="M282.7758 110.47325Q281.0958 110.47325 280.1958 109.55324999999999Q279.29580000000004 108.63324999999999 279.29580000000004 107.03325V93.67325H273.41580000000005V90.91324999999999H279.29580000000004V83.95325H282.4558V90.91324999999999H288.85580000000004V93.67325H282.4558V106.55324999999999Q282.4558 107.75325 283.61580000000004 107.75325H287.97580000000005V110.47325Z M293.9758 110.47325V82.47325H297.1358V94.03325H297.6958Q298.0958 93.15324999999999 298.9158 92.37324999999998Q299.7358 91.59325 301.0358 91.07325Q302.3358 90.55324999999999 304.3358 90.55324999999999Q306.5358 90.55324999999999 308.2758 91.49324999999999Q310.0158 92.43324999999999 311.0558 94.21324999999999Q312.0958 95.99324999999999 312.0958 98.63324999999999V110.47325H308.9358V98.87325Q308.9358 95.95325 307.4758 94.63325Q306.0158 93.31325 303.5358 93.31325Q300.6958 93.31325 298.9158 95.15324999999999Q297.1358 96.99324999999999 297.1358 100.63324999999999V110.47325Z M327.45579999999995 111.03325Q324.4958 111.03325 322.25579999999997 109.77324999999999Q320.01579999999996 108.51325 318.7758 106.23325Q317.5358 103.95325 317.5358 100.95325V100.47325Q317.5358 97.43324999999999 318.7758 95.15324999999999Q320.01579999999996 92.87324999999998 322.21579999999994 91.61325Q324.4158 90.35324999999999 327.25579999999997 90.35324999999999Q330.01579999999996 90.35324999999999 332.13579999999996 91.53324999999998Q334.25579999999997 92.71324999999999 335.45579999999995 94.91324999999999Q336.6558 97.11325 336.6558 100.07324999999999V101.51325H320.69579999999996Q320.81579999999997 104.67325 322.7358 106.45325Q324.6558 108.23325 327.5358 108.23325Q330.0558 108.23325 331.4158 107.07325Q332.7758 105.91324999999999 333.4958 104.31325L336.2158 105.63324999999999Q335.6158 106.87325 334.5558 108.11325Q333.4958 109.35324999999999 331.7958 110.19324999999999Q330.0958 111.03325 327.45579999999995 111.03325ZM320.7358 98.91324999999999H333.45579999999995Q333.2958 96.19324999999999 331.5958 94.67325Q329.8958 93.15324999999999 327.25579999999997 93.15324999999999Q324.57579999999996 93.15324999999999 322.85579999999993 94.67325Q321.13579999999996 96.19324999999999 320.7358 98.91324999999999Z M351.2158 111.03325Q348.25579999999997 111.03325 345.9958 109.79325Q343.7358 108.55324999999999 342.4758 106.29325Q341.2158 104.03325 341.2158 100.95325V100.43324999999999Q341.2158 97.39325 342.4758 95.11325Q343.7358 92.83324999999999 345.9958 91.59324999999998Q348.25579999999997 90.35324999999999 351.2158 90.35324999999999Q354.1758 90.35324999999999 356.4358 91.59324999999998Q358.69579999999996 92.83324999999999 359.95579999999995 95.11325Q361.2158 97.39325 361.2158 100.43324999999999V100.95325Q361.2158 104.03325 359.95579999999995 106.29325Q358.69579999999996 108.55324999999999 356.4358 109.79325Q354.1758 111.03325 351.2158 111.03325ZM351.2158 108.19324999999999Q354.3358 108.19324999999999 356.19579999999996 106.21324999999999Q358.0558 104.23325 358.0558 100.87325V100.51325Q358.0558 97.15324999999999 356.19579999999996 95.17325Q354.3358 93.19324999999999 351.2158 93.19324999999999Q348.13579999999996 93.19324999999999 346.25579999999997 95.17325Q344.37579999999997 97.15324999999999 344.37579999999997 100.51325V100.87325Q344.37579999999997 104.23325 346.25579999999997 106.21324999999999Q348.13579999999996 108.19324999999999 351.2158 108.19324999999999Z M366.89579999999995 110.47325V90.91324999999999H369.97579999999994V93.31325H370.53579999999994Q371.0558 92.03325 372.13579999999996 91.43324999999999Q373.21579999999994 90.83324999999999 374.97579999999994 90.83324999999999H377.2958V93.71324999999999H374.77579999999995Q372.65579999999994 93.71324999999999 371.35579999999993 94.89325Q370.0558 96.07324999999999 370.0558 98.55324999999999V110.47325Z M390.9358 111.03325Q387.97579999999994 111.03325 385.7357999999999 109.77324999999999Q383.4957999999999 108.51325 382.2557999999999 106.23325Q381.01579999999996 103.95325 381.01579999999996 100.95325V100.47325Q381.01579999999996 97.43324999999999 382.2557999999999 95.15324999999999Q383.4957999999999 92.87324999999998 385.69579999999996 91.61325Q387.89579999999995 90.35324999999999 390.7357999999999 90.35324999999999Q393.4957999999999 90.35324999999999 395.6157999999999 91.53324999999998Q397.7357999999999 92.71324999999999 398.9358 94.91324999999999Q400.13579999999996 97.11325 400.13579999999996 100.07324999999999V101.51325H384.1757999999999Q384.29579999999993 104.67325 386.21579999999994 106.45325Q388.13579999999996 108.23325 391.01579999999996 108.23325Q393.53579999999994 108.23325 394.89579999999995 107.07325Q396.25579999999997 105.91324999999999 396.97579999999994 104.31325L399.69579999999996 105.63324999999999Q399.09579999999994 106.87325 398.03579999999994 108.11325Q396.97579999999994 109.35324999999999 395.27579999999995 110.19324999999999Q393.57579999999996 111.03325 390.9358 111.03325ZM384.21579999999994 98.91324999999999H396.9358Q396.77579999999995 96.19324999999999 395.07579999999996 94.67325Q393.37579999999997 93.15324999999999 390.7357999999999 93.15324999999999Q388.0557999999999 93.15324999999999 386.33579999999995 94.67325Q384.6157999999999 96.19324999999999 384.21579999999994 98.91324999999999Z M412.85579999999993 110.47325Q411.1757999999999 110.47325 410.27579999999995 109.55324999999999Q409.37579999999997 108.63324999999999 409.37579999999997 107.03325V93.67325H403.4958V90.91324999999999H409.37579999999997V83.95325H412.53579999999994V90.91324999999999H418.9358V93.67325H412.53579999999994V106.55324999999999Q412.53579999999994 107.75325 413.69579999999996 107.75325H418.0558V110.47325Z M424.0557999999999 110.47325V90.91324999999999H427.21579999999994V110.47325ZM425.65579999999994 87.87324999999998Q424.6157999999999 87.87324999999998 423.91579999999993 87.19324999999999Q423.21579999999994 86.51325 423.21579999999994 85.47325Q423.21579999999994 84.39325 423.91579999999993 83.71324999999999Q424.6157999999999 83.03325 425.65579999999994 83.03325Q426.6957999999999 83.03325 427.3757999999999 83.71324999999999Q428.0557999999999 84.39325 428.0557999999999 85.47325Q428.0557999999999 86.51325 427.3757999999999 87.19324999999999Q426.6957999999999 87.87324999999998 425.65579999999994 87.87324999999998Z M442.85579999999993 111.03325Q440.01579999999996 111.03325 437.7557999999999 109.81325Q435.4957999999999 108.59325 434.19579999999996 106.31325Q432.89579999999995 104.03325 432.89579999999995 100.91324999999999V100.47325Q432.89579999999995 97.31325 434.19579999999996 95.05324999999999Q435.4957999999999 92.79325 437.7557999999999 91.57325Q440.01579999999996 90.35324999999999 442.85579999999993 90.35324999999999Q445.65579999999994 90.35324999999999 447.6357999999999 91.39325Q449.6157999999999 92.43324999999999 450.7557999999999 94.15324999999999Q451.89579999999995 95.87325 452.21579999999994 97.83324999999999L449.13579999999996 98.47325Q448.9357999999999 97.03325 448.19579999999996 95.83324999999999Q447.45579999999995 94.63324999999999 446.13579999999996 93.91324999999999Q444.81579999999997 93.19324999999999 442.89579999999995 93.19324999999999Q440.9357999999999 93.19324999999999 439.3957999999999 94.07325Q437.85579999999993 94.95325 436.95579999999995 96.59325Q436.0557999999999 98.23325 436.0557999999999 100.51325V100.87325Q436.0557999999999 103.15324999999999 436.95579999999995 104.79324999999999Q437.85579999999993 106.43324999999999 439.3957999999999 107.31324999999998Q440.9357999999999 108.19324999999999 442.89579999999995 108.19324999999999Q445.81579999999997 108.19324999999999 447.35579999999993 106.67325Q448.89579999999995 105.15324999999999 449.2557999999999 102.91324999999999L452.3757999999999 103.59325Q451.9357999999999 105.51325 450.7757999999999 107.23325Q449.6157999999999 108.95325 447.6357999999999 109.99324999999999Q445.65579999999994 111.03325 442.85579999999993 111.03325Z M463.77579999999995 111.03325Q461.7357999999999 111.03325 460.0558 110.31325Q458.37579999999997 109.59325 457.4158 108.23325Q456.45579999999995 106.87325 456.45579999999995 104.91324999999999Q456.45579999999995 102.91324999999999 457.4158 101.61325Q458.37579999999997 100.31325 460.0558 99.65324999999999Q461.7357999999999 98.99324999999999 463.81579999999997 98.99324999999999H470.41579999999993V97.55324999999999Q470.41579999999993 95.47325 469.19579999999996 94.27324999999999Q467.97579999999994 93.07324999999999 465.57579999999996 93.07324999999999Q463.21579999999994 93.07324999999999 461.89579999999995 94.21324999999999Q460.57579999999996 95.35324999999999 460.09579999999994 97.27324999999999L457.13579999999996 96.31325Q457.6158 94.67325 458.6558 93.33324999999999Q459.69579999999996 91.99324999999999 461.4358 91.17325Q463.1758 90.35324999999999 465.6158 90.35324999999999Q469.37579999999997 90.35324999999999 471.45579999999995 92.29325Q473.53579999999994 94.23325 473.53579999999994 97.75325V106.59325Q473.53579999999994 107.79324999999999 474.65579999999994 107.79324999999999H476.45579999999995V110.47325H473.69579999999996Q472.37579999999997 110.47325 471.57579999999996 109.73325Q470.77579999999995 108.99324999999999 470.77579999999995 107.75325V107.55324999999999H470.29579999999993Q469.85579999999993 108.31325 469.1157999999999 109.13325Q468.37579999999997 109.95325 467.09579999999994 110.49324999999999Q465.81579999999997 111.03325 463.77579999999995 111.03325ZM464.13579999999996 108.31325Q466.9358 108.31325 468.6758 106.65324999999999Q470.41579999999993 104.99324999999999 470.41579999999993 101.99324999999999V101.55324999999999H463.9358Q462.0558 101.55324999999999 460.83579999999995 102.37324999999998Q459.6158 103.19324999999999 459.6158 104.83324999999999Q459.6158 106.47325 460.87579999999997 107.39325Q462.13579999999996 108.31325 464.13579999999996 108.31325Z M480.77579999999995 110.47325V82.47325H483.9358V110.47325Z M509.85579999999993 111.03325Q507.01579999999996 111.03325 504.7557999999999 109.81325Q502.4957999999999 108.59325 501.19579999999996 106.31325Q499.89579999999995 104.03325 499.89579999999995 100.91324999999999V100.47325Q499.89579999999995 97.31325 501.19579999999996 95.05324999999999Q502.4957999999999 92.79325 504.7557999999999 91.57325Q507.01579999999996 90.35324999999999 509.85579999999993 90.35324999999999Q512.6557999999999 90.35324999999999 514.6357999999999 91.39325Q516.6157999999999 92.43324999999999 517.7557999999999 94.15324999999999Q518.8957999999999 95.87325 519.2158 97.83324999999999L516.1357999999999 98.47325Q515.9358 97.03325 515.1958 95.83324999999999Q514.4558 94.63324999999999 513.1358 93.91324999999999Q511.81579999999997 93.19324999999999 509.89579999999995 93.19324999999999Q507.9357999999999 93.19324999999999 506.3957999999999 94.07325Q504.85579999999993 94.95325 503.95579999999995 96.59325Q503.0557999999999 98.23325 503.0557999999999 100.51325V100.87325Q503.0557999999999 103.15324999999999 503.95579999999995 104.79324999999999Q504.85579999999993 106.43324999999999 506.3957999999999 107.31324999999998Q507.9357999999999 108.19324999999999 509.89579999999995 108.19324999999999Q512.8158 108.19324999999999 514.3557999999999 106.67325Q515.8957999999999 105.15324999999999 516.2557999999999 102.91324999999999L519.3757999999999 103.59325Q518.9358 105.51325 517.7757999999999 107.23325Q516.6157999999999 108.95325 514.6357999999999 109.99324999999999Q512.6557999999999 111.03325 509.85579999999993 111.03325Z M524.7758 110.47325V82.47325H527.9358V94.03325H528.4957999999999Q528.8958 93.15324999999999 529.7158 92.37324999999998Q530.5358 91.59325 531.8358 91.07325Q533.1357999999999 90.55324999999999 535.1357999999999 90.55324999999999Q537.3358 90.55324999999999 539.0758 91.49324999999999Q540.8158 92.43324999999999 541.8558 94.21324999999999Q542.8958 95.99324999999999 542.8958 98.63324999999999V110.47325H539.7357999999999V98.87325Q539.7357999999999 95.95325 538.2757999999999 94.63325Q536.8158 93.31325 534.3358 93.31325Q531.4957999999999 93.31325 529.7158 95.15324999999999Q527.9358 96.99324999999999 527.9358 100.63324999999999V110.47325Z M558.2557999999999 111.03325Q555.2958 111.03325 553.0558 109.77324999999999Q550.8158 108.51325 549.5758 106.23325Q548.3358 103.95325 548.3358 100.95325V100.47325Q548.3358 97.43324999999999 549.5758 95.15324999999999Q550.8158 92.87324999999998 553.0157999999999 91.61325Q555.2158 90.35324999999999 558.0558 90.35324999999999Q560.8158 90.35324999999999 562.9358 91.53324999999998Q565.0558 92.71324999999999 566.2557999999999 94.91324999999999Q567.4558 97.11325 567.4558 100.07324999999999V101.51325H551.4957999999999Q551.6157999999999 104.67325 553.5357999999999 106.45325Q555.4558 108.23325 558.3358 108.23325Q560.8557999999999 108.23325 562.2158 107.07325Q563.5758 105.91324999999999 564.2958 104.31325L567.0157999999999 105.63324999999999Q566.4158 106.87325 565.3558 108.11325Q564.2958 109.35324999999999 562.5957999999999 110.19324999999999Q560.8957999999999 111.03325 558.2557999999999 111.03325ZM551.5357999999999 98.91324999999999H564.2557999999999Q564.0957999999999 96.19324999999999 562.3958 94.67325Q560.6958 93.15324999999999 558.0558 93.15324999999999Q555.3757999999999 93.15324999999999 553.6558 94.67325Q551.9358 96.19324999999999 551.5357999999999 98.91324999999999Z M572.9757999999999 110.47325V90.91324999999999H576.0557999999999V93.35324999999999H576.6157999999999Q577.1757999999999 92.31325 578.4558 91.43324999999999Q579.7357999999999 90.55324999999999 582.0557999999999 90.55324999999999Q584.3357999999998 90.55324999999999 585.7557999999999 91.55324999999999Q587.1757999999999 92.55324999999999 587.8157999999999 93.99324999999999H588.3757999999999Q589.0557999999999 92.55324999999999 590.4357999999999 91.55324999999999Q591.8157999999999 90.55324999999999 594.2957999999999 90.55324999999999Q596.2557999999999 90.55324999999999 597.7357999999999 91.35324999999999Q599.2158 92.15324999999999 600.0757999999998 93.65324999999999Q600.9357999999999 95.15324999999999 600.9357999999999 97.23325V110.47325H597.7757999999999V97.51325Q597.7757999999999 95.55324999999999 596.6357999999999 94.41324999999999Q595.4957999999999 93.27324999999999 593.4557999999998 93.27324999999999Q591.2957999999999 93.27324999999999 589.9157999999999 94.67325Q588.5357999999999 96.07324999999999 588.5357999999999 98.71324999999999V110.47325H585.3757999999999V97.51325Q585.3757999999999 95.55324999999999 584.2357999999999 94.41324999999999Q583.0957999999999 93.27324999999999 581.0557999999999 93.27324999999999Q578.8957999999999 93.27324999999999 577.5157999999999 94.67325Q576.1357999999999 96.07324999999999 576.1357999999999 98.71324999999999V110.47325Z M607.3757999999999 110.47325V90.91324999999999H610.5357999999999V110.47325ZM608.9757999999999 87.87324999999998Q607.9357999999999 87.87324999999998 607.2357999999999 87.19324999999999Q606.5357999999999 86.51325 606.5357999999999 85.47325Q606.5357999999999 84.39325 607.2357999999999 83.71324999999999Q607.9357999999999 83.03325 608.9757999999999 83.03325Q610.0157999999999 83.03325 610.6958 83.71324999999999Q611.3757999999999 84.39325 611.3757999999999 85.47325Q611.3757999999999 86.51325 610.6958 87.19324999999999Q610.0157999999999 87.87324999999998 608.9757999999999 87.87324999999998Z M625.0557999999999 111.03325Q621.4157999999998 111.03325 618.9157999999998 109.35325Q616.4157999999998 107.67325 615.8957999999998 104.03325L618.8957999999998 103.35324999999999Q619.2157999999998 105.27324999999999 620.0957999999998 106.37324999999998Q620.9757999999998 107.47325 622.2757999999999 107.93324999999999Q623.5757999999998 108.39325 625.0557999999999 108.39325Q627.2557999999998 108.39325 628.5357999999999 107.51325Q629.8157999999999 106.63324999999999 629.8157999999999 105.15324999999999Q629.8157999999999 103.63324999999999 628.5957999999998 103.01325Q627.3757999999998 102.39325 625.2557999999998 101.99324999999999L623.6157999999998 101.71324999999999Q621.7357999999998 101.39325 620.1757999999998 100.71324999999999Q618.6157999999998 100.03325 617.6957999999997 98.87324999999998Q616.7757999999998 97.71324999999999 616.7757999999998 95.95325Q616.7757999999998 93.31325 618.8157999999999 91.83324999999999Q620.8557999999998 90.35324999999999 624.2157999999998 90.35324999999999Q627.5357999999998 90.35324999999999 629.5957999999998 91.85324999999999Q631.6557999999998 93.35324999999999 632.2557999999998 96.07324999999999L629.2957999999999 96.83324999999999Q628.9357999999999 94.71324999999999 627.5757999999998 93.85324999999999Q626.2157999999998 92.99324999999999 624.2157999999998 92.99324999999999Q622.2157999999998 92.99324999999999 621.0557999999999 93.73325Q619.8957999999998 94.47325 619.8957999999998 95.91324999999999Q619.8957999999998 97.31325 620.9957999999998 97.97325Q622.0957999999998 98.63324999999999 623.9357999999999 98.95325L625.5757999999998 99.23325Q627.6557999999998 99.59325 629.3157999999999 100.21324999999999Q630.9757999999998 100.83324999999999 631.9557999999998 101.99324999999999Q632.9357999999999 103.15324999999999 632.9357999999999 105.03325Q632.9357999999999 107.91324999999999 630.7957999999999 109.47325Q628.6557999999998 111.03325 625.0557999999999 111.03325Z M645.4557999999998 110.47325Q643.7757999999999 110.47325 642.8757999999998 109.55324999999999Q641.9757999999998 108.63324999999999 641.9757999999998 107.03325V93.67325H636.0957999999998V90.91324999999999H641.9757999999998V83.95325H645.1357999999999V90.91324999999999H651.5357999999999V93.67325H645.1357999999999V106.55324999999999Q645.1357999999999 107.75325 646.2957999999999 107.75325H650.6557999999999V110.47325Z M656.6557999999999 110.47325V90.91324999999999H659.7357999999998V93.31325H660.2957999999999Q660.8157999999999 92.03325 661.8957999999998 91.43324999999999Q662.9757999999998 90.83324999999999 664.7357999999998 90.83324999999999H667.0557999999999V93.71324999999999H664.5357999999999Q662.4157999999999 93.71324999999999 661.1157999999998 94.89325Q659.8157999999999 96.07324999999999 659.8157999999999 98.55324999999999V110.47325Z M674.0957999999998 118.47325V115.67325H685.2957999999999Q686.4557999999998 115.67325 686.4557999999998 114.47325V107.35324999999999H685.8957999999999Q685.4957999999999 108.19324999999999 684.6758 109.01325Q683.8557999999999 109.83324999999999 682.5357999999999 110.33324999999999Q681.2157999999998 110.83324999999999 679.2157999999998 110.83324999999999Q677.0957999999998 110.83324999999999 675.3157999999999 109.91324999999999Q673.5357999999999 108.99324999999999 672.5157999999999 107.19324999999999Q671.4957999999999 105.39325 671.4957999999999 102.79325V90.91324999999999H674.6557999999999V102.55324999999999Q674.6557999999999 105.43324999999999 676.1157999999998 106.75324999999998Q677.5757999999998 108.07324999999999 680.0557999999999 108.07324999999999Q682.8557999999999 108.07324999999999 684.6557999999999 106.23325Q686.4557999999998 104.39325 686.4557999999998 100.75325V90.91324999999999H689.6157999999999V115.03325Q689.6157999999999 116.63324999999999 688.7158 117.55324999999999Q687.8157999999999 118.47325 686.0957999999998 118.47325Z" fill="#eeedeb"/>
      <path d="M277.41581 154.70604V152.64204H281.56781V140.39004Q281.56781 139.97004 281.74181 139.69404Q281.91581 139.41804 282.19181000000003 139.32204000000002H277.41581V137.25804H288.02381V139.32204000000002H283.85981V151.57404Q283.85981 151.98204 283.68581 152.26404000000002Q283.51181 152.54604 283.23581 152.64204H288.02381V154.70604Z M294.52781 154.70604V137.25804H297.39581L302.06381 148.15404L303.80381 152.35404H303.88781L303.55181 148.08204V137.25804H305.71180999999996V154.70604H302.84380999999996L298.21180999999996 143.88204L296.49581 139.71804H296.39981L296.69980999999996 144.06204V154.70604Z M314.24380999999994 154.70604 313.70381 152.61804H316.37980999999996Q317.98780999999997 152.61804 319.13980999999995 151.84404Q320.29180999999994 151.07004 320.90380999999996 149.57004Q321.51581 148.07004 321.51581 145.89804Q321.51581 143.60604 320.93381 142.16004Q320.35180999999994 140.71404 319.20580999999993 140.03004Q318.05980999999997 139.34604000000002 316.36780999999996 139.34604000000002H313.60781L314.24380999999994 137.25804H316.10380999999995Q319.71581 137.25804 321.75581 139.32204000000002Q323.79580999999996 141.38604 323.79580999999996 145.87404Q323.79580999999996 148.77804 322.8118099999999 150.74604Q321.82780999999994 152.71404 320.09980999999993 153.71004Q318.37181 154.70604 316.11580999999995 154.70604ZM312.01180999999997 154.70604V137.25804H314.24380999999994V154.70604Z M329.61580999999995 154.70604V152.64204H333.76780999999994V140.39004Q333.76780999999994 139.97004 333.9418099999999 139.69404Q334.11580999999995 139.41804 334.39180999999996 139.32204000000002H329.61580999999995V137.25804H340.22380999999996V139.32204000000002H336.0598099999999V151.57404Q336.0598099999999 151.98204 335.88580999999994 152.26404000000002Q335.71180999999996 152.54604 335.43580999999995 152.64204H340.22380999999996V154.70604Z M345.1438099999999 154.70604 350.7958099999999 137.25804H353.8678099999999L359.4958099999999 154.70604H357.1438099999999L355.5118099999999 149.46204L356.7958099999999 150.37404H348.1198099999999L348.9598099999999 148.41804H356.19580999999994L355.4758099999999 149.34204L353.33980999999994 142.39404L352.3558099999999 138.87804H352.2838099999999L351.3118099999999 142.39404L347.5078099999999 154.70604Z M364.1278099999999 154.70604V137.25804H366.9958099999999L371.6638099999999 148.15404L373.4038099999999 152.35404H373.4878099999999L373.1518099999999 148.08204V137.25804H375.31180999999987V154.70604H372.44380999999987L367.81180999999987 143.88204L366.0958099999999 139.71804H365.9998099999999L366.29980999999987 144.06204V154.70604Z M379.94380999999987 154.70604 385.59580999999986 137.25804H388.66780999999986L394.29580999999985 154.70604H391.94380999999987L390.31180999999987 149.46204L391.59580999999986 150.37404H382.91980999999987L383.75980999999985 148.41804H390.9958099999999L390.27580999999986 149.34204L388.1398099999999 142.39404L387.15580999999986 138.87804H387.08380999999986L386.1118099999999 142.39404L382.30780999999985 154.70604Z M421.9558099999998 154.94604Q420.2878099999998 154.94604 418.9618099999998 154.26803999999998Q417.6358099999998 153.59004 416.86780999999985 152.15604Q416.0998099999998 150.72204 416.0998099999998 148.46604V137.23404H418.34380999999985V148.19004Q418.34380999999985 149.49804 418.6438099999998 150.39204Q418.9438099999998 151.28604 419.45980999999983 151.83204Q419.9758099999998 152.37804 420.6298099999998 152.61804Q421.28380999999985 152.85804 421.9798099999998 152.85804Q422.63980999999984 152.85804 423.26980999999984 152.61804Q423.89980999999983 152.37804 424.4038099999998 151.83204Q424.9078099999998 151.28604 425.2018099999998 150.39204Q425.49580999999984 149.49804 425.49580999999984 148.19004V137.25804H427.7398099999998V148.46604Q427.7398099999998 150.72204 426.95980999999983 152.15604Q426.1798099999998 153.59004 424.8718099999998 154.26803999999998Q423.5638099999998 154.94604 421.9558099999998 154.94604Z M433.7278099999998 154.70604V137.25804H436.5958099999998L441.2638099999998 148.15404L443.0038099999998 152.35404H443.0878099999998L442.7518099999998 148.08204V137.25804H444.9118099999998V154.70604H442.0438099999998L437.4118099999998 143.88204L435.6958099999998 139.71804H435.5998099999998L435.8998099999998 144.06204V154.70604Z M451.4158099999998 154.70604V152.64204H455.5678099999998V140.39004Q455.5678099999998 139.97004 455.74180999999976 139.69404Q455.9158099999998 139.41804 456.1918099999998 139.32204000000002H451.4158099999998V137.25804H462.0238099999998V139.32204000000002H457.85980999999975V151.57404Q457.85980999999975 151.98204 457.6858099999998 152.26404000000002Q457.5118099999998 152.54604 457.2358099999998 152.64204H462.0238099999998V154.70604Z M472.59580999999974 154.70604 467.3638099999998 137.25804H469.90780999999976L473.26780999999977 149.54604L474.04780999999974 152.57004H474.20380999999975L474.9838099999998 149.54604L478.33180999999973 137.25804H480.8758099999998L475.65580999999975 154.70604Z M486.45580999999976 154.70604V137.25804H496.47580999999974V139.19004H487.71580999999975L488.68780999999973 138.26604V145.23804L487.71580999999975 144.59004H495.6238099999997V146.52204H488.05180999999976L488.68780999999973 145.81404V153.89004L487.71580999999975 152.73804H496.99180999999976V154.70604Z M513.0118099999997 154.70604 508.9078099999997 147.59004H505.5718099999997L504.7678099999997 147.41004L505.1278099999997 145.93404V145.55004H508.9438099999997Q510.0598099999997 145.55004 510.7318099999997 145.08803999999998Q511.40380999999974 144.62604 511.6978099999997 143.87004Q511.9918099999997 143.11404 511.9918099999997 142.22604Q511.9918099999997 141.24204 511.6678099999997 140.57604Q511.34380999999973 139.91004 510.61180999999976 139.57404000000002Q509.87980999999974 139.23804 508.6558099999997 139.23804L505.7878099999997 139.22604L505.7758099999997 138.65004L504.7558099999997 137.25804Q505.30780999999973 137.25804 505.99180999999976 137.25804Q506.67580999999973 137.25804 507.3358099999997 137.25804Q507.9958099999997 137.25804 508.4758099999997 137.25804Q511.39180999999974 137.25804 512.8438099999997 138.46404Q514.2958099999997 139.67004 514.2958099999997 141.99804Q514.2958099999997 142.87404 514.1038099999997 143.73203999999998Q513.9118099999997 144.59004 513.4318099999997 145.33404Q512.9518099999997 146.07804 512.1118099999997 146.60003999999998Q511.27180999999973 147.12204 509.9758099999997 147.32604L510.0358099999997 147.03804Q510.4558099999997 147.02604 510.73780999999974 147.11004Q511.0198099999997 147.19404 511.24180999999976 147.42203999999998Q511.46380999999974 147.65004 511.7038099999997 148.08204L515.5318099999997 154.70604ZM503.6518099999997 154.70604V137.25804H505.8598099999997V154.70604Z M526.4038099999997 154.94604Q524.6038099999997 154.94604 523.2058099999997 154.37004000000002Q521.8078099999997 153.79404 521.0038099999997 152.58204Q520.1998099999997 151.37004 520.1758099999997 149.45004H522.3838099999997Q522.4078099999997 150.74604 522.9838099999997 151.50804Q523.5598099999997 152.27004 524.4898099999997 152.60003999999998Q525.4198099999996 152.93004 526.4878099999997 152.93004Q527.7238099999997 152.93004 528.5338099999997 152.56403999999998Q529.3438099999997 152.19804 529.7518099999998 151.59804Q530.1598099999997 150.99804 530.1598099999997 150.31404Q530.1598099999997 149.33004 529.6558099999997 148.71804Q529.1518099999997 148.10604 528.2158099999997 147.69204000000002Q527.2798099999997 147.27804 525.9958099999997 146.87004Q524.5798099999997 146.41404 523.4218099999997 145.71804Q522.2638099999997 145.02204 521.5798099999997 144.00804Q520.8958099999996 142.99404 520.8958099999996 141.60204Q520.8958099999996 140.06604 521.6518099999996 139.04003999999998Q522.4078099999997 138.01404 523.6738099999998 137.49804Q524.9398099999997 136.98204 526.4638099999997 136.98204Q528.7438099999997 136.98204 530.1838099999998 138.18804Q531.6238099999997 139.39404 531.9238099999997 141.85404H529.7878099999997Q529.6798099999996 141.03804 529.3018099999997 140.39004Q528.9238099999997 139.74204 528.2158099999997 139.36404Q527.5078099999997 138.98604 526.3918099999997 138.98604Q524.8558099999997 138.98604 523.9558099999997 139.65804Q523.0558099999997 140.33004 523.0558099999997 141.51804Q523.0558099999997 142.35804 523.3858099999998 142.95204Q523.7158099999997 143.54604 524.5378099999997 144.03204Q525.3598099999997 144.51804 526.8118099999997 145.04604Q527.8558099999997 145.41804 528.8458099999997 145.82603999999998Q529.8358099999997 146.23404 530.6218099999996 146.79204Q531.4078099999997 147.35004 531.8758099999998 148.17204Q532.3438099999997 148.99404 532.3438099999997 150.20604Q532.3558099999997 151.69404 531.6178099999997 152.75603999999998Q530.8798099999997 153.81804 529.5418099999997 154.38204000000002Q528.2038099999996 154.94604 526.4038099999997 154.94604Z M538.4158099999996 154.70604V152.64204H542.5678099999997V140.39004Q542.5678099999997 139.97004 542.7418099999996 139.69404Q542.9158099999996 139.41804 543.1918099999997 139.32204000000002H538.4158099999996V137.25804H549.0238099999997V139.32204000000002H544.8598099999997V151.57404Q544.8598099999997 151.98204 544.6858099999997 152.26404000000002Q544.5118099999996 152.54604 544.2358099999997 152.64204H549.0238099999997V154.70604Z M559.9798099999996 154.70604V140.36604Q559.9798099999996 139.94604 560.1478099999996 139.67004Q560.3158099999996 139.39404 560.6038099999996 139.29804000000001H555.1198099999997V137.25804H567.1198099999997V139.29804000000001H562.2598099999997V154.70604Z M577.4878099999996 148.85004 571.7158099999996 137.25804H574.2718099999996L576.4678099999996 142.02204L578.4238099999997 146.28204H578.6038099999996L580.5718099999996 142.03404L582.7798099999997 137.25804H585.3238099999996L579.5638099999996 148.85004ZM577.4278099999996 154.70604V147.69804H579.6118099999997V154.70604Z" fill="#eeedeb"/>
    </g>
  </g>
</svg>
